<svg xmlns="http://www.w3.org/2000/svg" viewBox="0 0 128 128">
  <defs>
    <linearGradient id="g" x1="0" y1="0" x2="1" y2="1">
      <stop offset="0" stop-color="#1F8A70"/>
      <stop offset="1" stop-color="#E23D28"/>
    </linearGradient>
  </defs>
  <rect x="8" y="8" width="112" height="112" rx="28" fill="url(#g)"/>
  <path d="M64 28c-10 0-18 8-18 18v10H36c-6 0-10 4-10 10v10c0 6 4 10 10 10h10v10c0 10 8 18 18 18s18-8 18-18V86h10c6 0 10-4 10-10V66c0-6-4-10-10-10H82V46c0-10-8-18-18-18z" fill="#FFFBF2" opacity="0.96"/>
</svg>
